<?xml version="1.0" standalone="no"?>
<!DOCTYPE svg PUBLIC "-//W3C//DTD SVG 20010904//EN"
 "http://www.w3.org/TR/2001/REC-SVG-20010904/DTD/svg10.dtd">
<svg version="1.0" xmlns="http://www.w3.org/2000/svg"
 width="1000.000000pt" height="985.000000pt" viewBox="0 0 1000.000000 985.000000"
 preserveAspectRatio="xMidYMid meet">

<g transform="translate(0.000000,985.000000) scale(0.100000,-0.100000)"
fill="#000000" stroke="none">
<path d="M4730 9844 c-25 -2 -103 -9 -175 -15 -1502 -125 -2886 -953 -3730
-2229 -456 -690 -719 -1442 -807 -2310 -17 -163 -17 -715 0 -885 63 -640 227
-1222 502 -1773 627 -1260 1749 -2194 3109 -2588 85 -24 155 -43 157 -41 2 1
-4 25 -13 52 -15 43 -17 118 -21 542 l-3 491 -392 4 c-387 5 -393 5 -492 31
-184 49 -337 141 -436 260 -69 82 -135 219 -214 442 -135 385 -242 557 -442
716 -79 64 -100 99 -82 141 15 36 76 67 132 68 54 0 181 -52 283 -116 158 -99
249 -187 430 -411 165 -205 226 -251 381 -290 123 -31 590 -21 883 18 l85 12
78 156 c42 86 107 199 145 251 90 127 236 272 349 347 l91 61 -81 11 c-883
125 -1523 412 -1925 864 -447 502 -587 1265 -347 1897 78 204 225 455 379 646
l65 81 -19 74 c-160 612 -150 1130 26 1370 l36 49 71 0 c206 -1 482 -71 689
-176 161 -81 359 -228 491 -362 l69 -69 76 24 c197 61 460 117 707 150 188 24
667 24 860 0 246 -32 604 -111 748 -166 27 -10 32 -7 112 73 313 313 720 503
1120 523 l111 6 29 -34 c37 -44 91 -158 110 -234 53 -212 47 -554 -16 -875
-22 -114 -63 -284 -79 -325 -9 -23 -3 -34 62 -113 240 -292 394 -626 460 -992
22 -123 16 -498 -10 -640 -127 -694 -561 -1193 -1298 -1493 -278 -114 -677
-212 -1003 -249 -61 -6 -111 -14 -111 -18 0 -3 22 -17 48 -31 78 -43 199 -146
279 -238 203 -232 361 -556 425 -873 23 -111 23 -122 23 -815 0 -698 0 -703
20 -697 81 24 381 151 530 224 524 257 966 577 1380 1001 740 759 1217 1727
1364 2769 38 270 46 390 46 710 0 320 -8 441 -46 710 -200 1413 -999 2672
-2199 3465 -676 447 -1422 712 -2255 801 -131 14 -664 27 -765 18z"/>
</g>
</svg>
