<?xml version="1.0" standalone="no"?>
<!DOCTYPE svg PUBLIC "-//W3C//DTD SVG 20010904//EN"
 "http://www.w3.org/TR/2001/REC-SVG-20010904/DTD/svg10.dtd">
<svg version="1.0" xmlns="http://www.w3.org/2000/svg"
 width="1496.000000pt" height="694.000000pt" viewBox="0 0 1496.000000 694.000000"
 preserveAspectRatio="xMidYMid meet">

<g transform="translate(0.000000,694.000000) scale(0.100000,-0.100000)"
fill="#000000" stroke="none">
<path d="M13107 5673 c-4 -3 -7 -239 -7 -524 0 -585 -9 -531 83 -528 l47 2 0
204 0 203 28 1 c15 0 73 0 130 1 l103 0 112 -203 112 -204 73 -1 c39 -1 72 0
72 3 0 2 -52 98 -115 213 -63 114 -115 210 -115 214 0 3 17 14 38 25 104 53
159 164 149 301 -6 89 -25 136 -74 191 -76 84 -134 99 -409 105 -121 2 -224 1
-227 -3z m486 -137 c77 -38 115 -131 96 -234 -11 -59 -34 -90 -90 -122 -41
-23 -55 -25 -206 -28 l-163 -4 0 207 0 206 163 -3 c134 -2 168 -6 200 -22z"/>
<path d="M14022 5108 c3 -283 5 -306 24 -348 45 -95 117 -139 230 -140 89 0
163 34 211 98 l32 42 3 -67 3 -68 58 -3 57 -3 0 396 0 395 -60 0 -60 0 0 -258
c0 -247 -1 -260 -22 -302 -64 -125 -230 -156 -312 -59 -41 48 -46 89 -46 362
l0 257 -61 0 -60 0 3 -302z"/>
<path d="M14919 5338 c-17 -18 -38 -47 -45 -65 -32 -76 -5 -186 56 -231 l30
-23 0 176 c0 96 -2 175 -4 175 -3 0 -19 -14 -37 -32z"/>
<path d="M60 3315 l0 -1575 230 0 230 0 0 1140 c0 952 2 1140 14 1140 8 0 186
-419 483 -1137 l469 -1138 187 -2 c171 -1 188 0 197 17 5 10 217 519 470 1131
253 612 464 1117 469 1122 5 5 14 6 20 3 8 -5 11 -335 11 -1142 l0 -1134 225
0 225 0 0 1575 0 1575 -291 -2 -291 -3 -506 -1223 c-446 -1076 -509 -1222
-527 -1220 -16 3 -109 219 -525 1223 l-506 1220 -292 3 -292 2 0 -1575z"/>
<path d="M14883 4828 c-28 -6 -43 -15 -43 -25 0 -30 33 -83 74 -120 l41 -38 3
75 c3 85 -3 120 -21 119 -6 -1 -31 -5 -54 -11z"/>
<path d="M9120 4385 l0 -285 -175 0 -175 0 0 -185 0 -185 175 0 175 0 0 -748
c0 -713 1 -752 20 -826 28 -109 63 -169 150 -256 82 -82 168 -132 290 -167 94
-26 356 -26 458 2 39 10 72 24 72 31 0 6 -18 91 -40 189 -22 98 -40 179 -40
180 0 1 -19 -1 -42 -6 -63 -12 -195 -11 -239 3 -56 16 -112 69 -140 130 l-24
53 -3 708 -3 707 246 0 245 0 0 185 0 185 -245 0 -245 0 0 285 0 285 -230 0
-230 0 0 -285z"/>
<path d="M4816 4114 c-475 -86 -810 -467 -877 -1000 -17 -135 -6 -410 21 -536
35 -165 97 -315 183 -443 53 -78 175 -200 256 -255 209 -140 501 -208 789
-182 387 35 677 209 812 487 27 55 52 110 55 122 7 25 23 21 -241 67 l-190 33
-35 -65 c-41 -77 -132 -166 -209 -204 -95 -45 -174 -62 -300 -62 -217 -1 -360
53 -490 183 -113 114 -174 257 -195 459 l-6 62 852 0 852 0 -6 183 c-7 204
-25 328 -69 467 -122 386 -420 639 -813 690 -102 14 -298 10 -389 -6z m378
-384 c94 -24 182 -69 246 -127 99 -89 174 -249 187 -398 l6 -75 -621 0 -621 0
5 38 c27 199 133 380 280 477 147 98 343 130 518 85z"/>
<path d="M7268 4114 c-407 -63 -677 -314 -695 -644 -17 -312 147 -529 487
-648 47 -16 205 -56 350 -87 308 -67 398 -97 468 -160 88 -79 110 -193 58
-299 -123 -251 -676 -292 -880 -65 -44 49 -96 143 -96 173 0 8 -5 18 -10 21
-11 7 -431 -54 -441 -64 -13 -12 21 -116 68 -211 74 -151 214 -279 380 -345
272 -110 617 -123 915 -35 418 125 642 466 548 835 -42 164 -143 280 -323 370
-114 57 -193 81 -512 154 -143 32 -285 68 -315 80 -87 33 -162 82 -195 129
-26 38 -30 54 -33 121 -4 68 -1 84 22 128 41 83 135 147 259 180 95 25 264 23
352 -5 125 -38 229 -127 276 -237 19 -45 28 -55 44 -51 11 2 104 19 208 37
127 22 187 37 187 45 0 29 -50 148 -90 216 -113 190 -316 317 -579 362 -114
19 -330 20 -453 0z"/>
<path d="M11345 4114 c-111 -20 -259 -73 -348 -123 -376 -215 -583 -678 -539
-1204 52 -634 418 -1035 993 -1088 544 -50 982 229 1155 735 49 143 68 276 68
466 -1 266 -40 452 -134 645 -150 310 -417 509 -764 570 -110 19 -323 18 -431
-1z m394 -390 c145 -38 285 -157 359 -305 130 -261 147 -632 42 -921 -99 -270
-301 -418 -574 -418 -244 0 -428 114 -537 335 -57 116 -83 211 -100 362 -35
324 51 634 224 807 142 142 369 196 586 140z"/>
</g>
</svg>
