<?xml version="1.0" standalone="no"?>
<!DOCTYPE svg PUBLIC "-//W3C//DTD SVG 20010904//EN"
 "http://www.w3.org/TR/2001/REC-SVG-20010904/DTD/svg10.dtd">
<svg version="1.0" xmlns="http://www.w3.org/2000/svg"
 width="1432.000000pt" height="1426.000000pt" viewBox="0 0 1432.000000 1426.000000"
 preserveAspectRatio="xMidYMid meet">

<g transform="translate(0.000000,1426.000000) scale(0.100000,-0.100000)"
fill="#000000" stroke="none">
<path d="M6840 14239 c-1976 -81 -3868 -1024 -5149 -2567 -866 -1043 -1410
-2291 -1586 -3640 -65 -499 -72 -1135 -19 -1652 189 -1837 1093 -3535 2514
-4724 1155 -967 2557 -1535 4065 -1646 77 -5 307 -10 510 -10 453 0 671 15
1055 71 1229 178 2433 705 3410 1493 411 331 838 765 1158 1176 889 1143 1400
2494 1492 3940 13 212 13 668 0 880 -61 953 -297 1845 -714 2695 -974 1986
-2811 3408 -4971 3849 -573 117 -1145 161 -1765 135z m772 -3384 c372 -42 643
-113 929 -246 267 -123 481 -270 641 -437 247 -261 358 -530 358 -872 0 -334
-86 -549 -304 -757 -77 -74 -113 -101 -188 -137 -176 -87 -353 -113 -558 -81
-131 19 -231 54 -396 135 -132 65 -181 97 -474 309 -214 155 -332 213 -432
212 -174 -1 -268 -88 -271 -253 -2 -64 2 -80 28 -126 77 -141 240 -230 704
-387 303 -102 461 -163 671 -260 546 -253 936 -564 1175 -940 155 -242 268
-614 296 -975 13 -167 7 -475 -11 -620 -84 -655 -371 -1155 -884 -1539 -474
-356 -1106 -527 -1881 -508 -527 12 -938 106 -1351 308 -130 63 -351 205 -456
291 -107 89 -277 259 -345 346 -247 316 -356 703 -298 1057 34 213 100 354
240 519 110 129 313 254 510 313 84 25 102 27 280 27 178 0 196 -2 280 -27
105 -32 264 -108 370 -178 42 -27 155 -109 253 -183 275 -207 438 -307 571
-351 72 -24 199 -17 258 13 90 47 133 136 133 277 0 71 -4 90 -30 142 -35 70
-96 131 -169 168 -105 53 -393 165 -801 310 -488 174 -709 281 -955 464 -154
114 -366 332 -458 471 -205 311 -302 616 -328 1037 -33 520 87 1039 321 1398
275 419 678 732 1185 919 210 77 517 144 761 165 156 14 484 12 626 -4z"/>
</g>
</svg>
